<svg xmlns="http://www.w3.org/2000/svg" viewBox="0 0 123.69 123.69"><defs><style>.cls-1{fill:#fff;}</style></defs><title>sanspicLogo</title><g id="Layer_2" data-name="Layer 2"><g id="Layer_1-2" data-name="Layer 1"><rect class="cls-1" x="114.9" y="117.64" width="8.79" height="6.06"/><rect class="cls-1" x="114.9" y="104.57" width="8.79" height="6.06"/><rect class="cls-1" x="114.9" y="91.5" width="8.79" height="6.06"/><rect class="cls-1" x="114.9" y="78.42" width="8.79" height="6.06"/><rect class="cls-1" x="114.9" y="65.35" width="8.79" height="6.06"/><path class="cls-1" d="M48.36,82.89v40.8h59.53V65.35h-42A21.37,21.37,0,0,1,48.36,82.89Z"/><path class="cls-1" d="M23.81,65.35H0v58.34H41.35V82.89A21.37,21.37,0,0,1,23.81,65.35Z"/><path class="cls-1" d="M44.85,76.16A14.32,14.32,0,1,0,30.54,61.85,14.33,14.33,0,0,0,44.85,76.16Z"/><path class="cls-1" d="M65.9,58.34h57.79v-54L63.56,51.6A21.52,21.52,0,0,1,65.9,58.34Z"/><path class="cls-1" d="M117.8,0H48.36V40.8a21.15,21.15,0,0,1,10.86,5.29Z"/><path class="cls-1" d="M41.35,0H0V58.34H23.81A21.35,21.35,0,0,1,41.35,40.81Z"/></g></g></svg>